<?xml version="1.0" standalone="no"?>
<!DOCTYPE svg PUBLIC "-//W3C//DTD SVG 20010904//EN"
 "http://www.w3.org/TR/2001/REC-SVG-20010904/DTD/svg10.dtd">
<svg version="1.0" xmlns="http://www.w3.org/2000/svg"
 width="1875.000000pt" height="1875.000000pt" viewBox="0 0 1875.000000 1875.000000"
 preserveAspectRatio="xMidYMid meet">

<g transform="translate(0.000000,1875.000000) scale(0.100000,-0.100000)"
fill="#000000" stroke="none">
<path d="M6751 14280 c-7 -46 -11 -273 -11 -683 0 -613 2 -669 36 -802 5 -18
3 -18 -15 4 l-21 23 -2 -2848 -3 -2849 -1117 -3 -1118 -2 0 -760 0 -760 335 0
335 0 0 -2285 0 -2285 3745 0 3745 0 0 2285 0 2285 330 0 330 0 0 760 0 761
-727 -5 c-401 -3 -741 -5 -758 -5 -16 -1 -295 2 -620 5 l-590 5 -60 -45 c-33
-25 -64 -46 -68 -46 -5 0 5 19 23 43 l31 42 -908 3 c-799 2 -908 0 -916 -13
-11 -20 -100 -20 -204 0 -65 13 -206 15 -855 15 l-778 0 -2 3591 -3 3591 -61
23 -61 23 -12 -68z m2877 -7460 c34 -15 47 -29 63 -64 19 -43 20 -64 17 -408
-3 -357 -3 -363 -25 -394 -47 -66 -19 -64 -773 -64 -747 0 -711 -3 -764 60
l-26 32 0 377 c0 376 0 378 23 412 48 72 14 69 767 69 647 0 677 -1 718 -20z"/>
</g>
</svg>
