<?xml version="1.0" standalone="no"?>
<!DOCTYPE svg PUBLIC "-//W3C//DTD SVG 20010904//EN"
 "http://www.w3.org/TR/2001/REC-SVG-20010904/DTD/svg10.dtd">
<svg version="1.0" xmlns="http://www.w3.org/2000/svg"
 width="941.000000pt" height="611.000000pt" viewBox="0 0 941.000000 611.000000"
 preserveAspectRatio="xMidYMid meet">

<g transform="translate(0.000000,611.000000) scale(0.100000,-0.100000)"
fill="#000000" stroke="none">
<path d="M9402 5490 c0 -14 2 -19 5 -12 2 6 2 18 0 25 -3 6 -5 1 -5 -13z"/>
<path d="M7875 4182 c-5 -5 -34 -17 -62 -28 -29 -10 -53 -22 -53 -28 0 -5 -3
-7 -6 -3 -9 9 -66 -32 -99 -71 -25 -29 -29 -45 -33 -112 -4 -70 -2 -82 19
-112 29 -42 34 -46 89 -84 25 -17 74 -39 110 -50 93 -27 280 -23 615 16 149
17 407 46 575 66 168 19 322 35 343 34 l37 0 0 99 0 98 -52 7 c-29 4 -105 13
-168 21 -63 8 -151 19 -195 25 -44 6 -204 26 -356 45 -152 19 -284 38 -293 41
-9 4 -33 7 -54 9 -20 1 -44 5 -52 8 -42 16 -351 33 -365 19z"/>
<path d="M9402 3740 c0 -19 2 -27 5 -17 2 9 2 25 0 35 -3 9 -5 1 -5 -18z"/>
<path d="M2091 2234 c0 -11 3 -14 6 -6 3 7 2 16 -1 19 -3 4 -6 -2 -5 -13z"/>
<path d="M0 961 l0 -961 2803 0 c2397 1 2798 3 2777 15 -14 7 -51 19 -82 26
-32 7 -58 16 -58 20 0 4 -18 10 -40 14 -22 4 -40 11 -40 16 0 5 -18 12 -40 15
-22 4 -40 10 -40 14 0 4 -17 11 -37 15 -21 4 -51 12 -68 19 -98 42 -256 96
-279 96 -8 0 -16 3 -18 8 -1 4 -68 24 -148 45 -80 21 -161 43 -180 48 -127 35
-326 71 -490 88 -200 21 -595 9 -739 -23 -84 -18 -153 -31 -326 -61 -77 -13
-165 -29 -195 -35 -30 -7 -80 -16 -110 -21 -30 -4 -93 -15 -140 -24 -180 -31
-432 -29 -625 6 -68 13 -317 89 -325 100 -3 4 -22 10 -43 14 -20 4 -37 10 -37
14 0 4 -26 16 -57 27 -64 21 -259 117 -284 140 -8 8 -19 14 -22 14 -4 0 -26
18 -49 40 -24 22 -49 40 -55 40 -7 0 -13 6 -13 13 0 6 -17 30 -37 52 -21 22
-44 53 -52 68 -8 15 -18 27 -23 27 -4 0 -8 7 -8 15 0 16 -20 56 -32 65 -26 20
-67 215 -68 320 0 60 -20 160 -32 160 -5 0 -8 7 -8 16 0 37 -68 141 -134 206
-39 37 -74 68 -78 68 -4 0 -8 7 -8 15 0 8 -9 15 -20 15 -11 0 -20 4 -20 8 0
10 -85 52 -105 52 -8 0 -15 3 -15 8 0 4 -28 18 -62 30 -35 13 -85 32 -112 43
-27 10 -58 19 -70 19 -12 0 -26 4 -32 8 -8 7 -43 20 -101 37 l-23 6 0 -960z"/>
<path d="M9396 1394 c-3 -9 -6 -310 -6 -670 0 -433 -4 -662 -10 -675 -6 -10
-19 -19 -29 -19 -11 0 -21 -7 -25 -15 -4 -12 4 -15 39 -15 l45 0 0 705 c0 388
-2 705 -4 705 -2 0 -7 -7 -10 -16z"/>
</g>
</svg>
