<?xml version="1.0" standalone="no"?>
<!DOCTYPE svg PUBLIC "-//W3C//DTD SVG 20010904//EN"
 "http://www.w3.org/TR/2001/REC-SVG-20010904/DTD/svg10.dtd">
<svg version="1.0" xmlns="http://www.w3.org/2000/svg"
 width="1875.000000pt" height="1875.000000pt" viewBox="0 0 1875.000000 1875.000000"
 preserveAspectRatio="xMidYMid meet">

<g transform="translate(0.000000,1875.000000) scale(0.100000,-0.100000)"
fill="#000000" stroke="none">
<path d="M3400 9365 c0 -4411 4 -8015 8 -8009 4 7 131 138 282 293 l274 281
933 0 933 0 0 623 0 622 735 -3 735 -2 0 -620 0 -620 2138 0 2137 0 -3 620 -2
620 735 0 735 0 0 -620 0 -620 870 0 870 0 0 7440 0 7440 -5409 0 -5410 0
-124 128 c-69 70 -195 199 -281 287 l-156 160 0 -8020z m5015 6630 c102 -26
182 -72 260 -149 121 -119 174 -260 162 -435 l-6 -88 47 -11 c26 -6 57 -14 68
-18 18 -5 24 0 33 28 40 114 173 275 296 357 292 195 684 186 960 -24 33 -25
64 -43 70 -41 232 109 450 141 660 97 191 -39 341 -117 476 -248 172 -166 270
-364 286 -579 l6 -81 88 -11 c167 -23 300 -78 426 -176 332 -260 398 -745 148
-1085 l-46 -62 36 -58 c162 -262 121 -595 -100 -816 -87 -88 -201 -154 -304
-178 l-54 -12 -40 -82 -41 -81 -43 -4 c-24 -2 -48 1 -53 6 -6 6 -10 62 -10
126 0 150 -13 256 -51 408 -138 562 -529 1031 -1084 1302 -327 160 -642 231
-1020 231 -207 0 -341 -14 -529 -56 -252 -56 -531 -176 -742 -317 l-110 -74
-172 166 c-95 91 -172 172 -172 178 0 7 -6 12 -12 12 -7 0 -65 46 -128 101
-63 56 -165 139 -226 185 l-111 83 -14 63 c-55 247 69 505 291 610 64 30 69
35 65 58 -14 63 -17 185 -6 243 40 203 205 377 411 431 73 19 211 20 285 1z
m16 -4531 c136 -23 341 -94 518 -179 158 -77 211 -106 511 -280 492 -285 735
-393 995 -441 125 -23 349 -15 455 16 99 28 226 88 306 145 36 25 69 45 73 45
15 0 61 -292 76 -487 l7 -82 40 26 c46 31 127 41 181 24 46 -15 122 -98 153
-166 43 -94 56 -183 51 -345 -6 -175 -27 -261 -97 -406 -84 -173 -202 -271
-316 -262 l-52 5 -26 -102 c-88 -353 -218 -685 -342 -877 -42 -65 -358 -422
-530 -598 l-83 -85 -3 -328 c-3 -285 -1 -327 12 -327 31 0 82 -42 97 -78 14
-35 23 -41 201 -122 613 -277 1279 -597 1497 -719 134 -75 357 -220 410 -266
l30 -26 -30 6 c-263 59 -563 44 -805 -40 -259 -90 -492 -263 -640 -474 -25
-35 -52 -65 -60 -66 -8 -1 -53 -5 -100 -9 -47 -4 -105 -9 -130 -11 -138 -12
-175 -15 -280 -21 -63 -3 -125 -7 -137 -9 -170 -26 -1642 -26 -1938 0 -22 2
-87 6 -145 9 -122 7 -230 15 -280 21 -19 2 -80 7 -135 11 -55 3 -105 9 -111
13 -7 3 -39 42 -71 86 -157 210 -392 377 -648 460 -152 50 -299 68 -490 62
-93 -3 -190 -11 -214 -17 -80 -20 -76 -6 17 60 268 190 695 408 1737 886 225
104 291 138 293 153 5 30 56 80 89 87 l28 6 0 324 -1 324 -76 78 c-165 168
-504 550 -546 615 -120 187 -256 542 -347 907 l-16 65 -53 -3 c-157 -10 -312
172 -388 456 -29 112 -36 324 -13 428 24 113 65 194 126 248 74 67 169 75 248
23 l39 -26 6 72 c44 493 122 778 284 1044 56 92 56 93 118 113 151 51 334 63
505 34z"/>
</g>
</svg>
